<svg width="36" height="35" viewBox="0 0 36 35" fill="none" xmlns="http://www.w3.org/2000/svg">
<path d="M5.33138 1.61888L4.48138 0.768884C3.98908 0.276576 3.32136 -5.18731e-09 2.62513 0C1.92891 5.18731e-09 1.26119 0.276576 0.768884 0.768884C0.276576 1.26119 5.18731e-09 1.92891 0 2.62513C-5.18731e-09 3.32136 0.276576 3.98908 0.768884 4.48138L1.61888 5.33138C1.94388 5.65638 2.06888 6.14388 1.91888 6.59388L1.24388 8.60638C0.943884 9.49388 1.18138 10.4689 1.84388 11.1189L2.61888 11.9064H2.70388L7.94888 7.93763L11.9064 2.73763V2.61888L11.1189 1.84388C10.4689 1.18138 9.49388 0.943884 8.60638 1.24388L6.59388 1.91888C6.14388 2.06888 5.65638 1.94388 5.33138 1.61888Z" fill="#FCD53F"/>
<path d="M21.6562 4.01889L21.6312 3.99389L21.5938 3.95639C20.6819 3.07671 19.4831 2.55589 18.2179 2.48975C16.9526 2.4236 15.7061 2.81658 14.7075 3.59639C14.5425 3.72639 13.945 3.39389 13.7912 3.54639L3.57875 13.7589C3.42 13.9176 3.71375 14.5564 3.57875 14.7301C2.80737 15.729 2.42105 16.9721 2.49036 18.2323C2.55967 19.4924 3.07998 20.6856 3.95625 21.5939L4.01875 21.6564L15.6312 33.2689C16.18 33.8187 16.8317 34.2548 17.5492 34.5524C18.2666 34.85 19.0358 35.0032 19.8125 35.0032C20.5892 35.0032 21.3584 34.85 22.0758 34.5524C22.7933 34.2548 23.445 33.8187 23.9937 33.2689L33.2812 23.9814C33.831 23.4327 34.2672 22.7809 34.5648 22.0635C34.8624 21.346 35.0155 20.5769 35.0155 19.8001C35.0155 19.0234 34.8624 18.2543 34.5648 17.5368C34.2672 16.8193 33.831 16.1676 33.2812 15.6189L33.2437 15.5814L21.7062 4.04389C21.6812 4.03139 21.6687 4.01889 21.6562 4.01889Z" fill="#FBB8AB"/>
<path d="M20.5681 5.54387C20.4681 5.48137 20.3806 5.40637 20.2931 5.31887C19.6552 4.70468 18.8022 4.36468 17.9167 4.37169C17.0312 4.3787 16.1837 4.73216 15.5556 5.35637L5.34311 15.5689C4.05561 16.8689 4.03061 18.9939 5.30561 20.3064C5.31811 20.3314 5.33061 20.3439 5.34311 20.3564L9.01436 24.0276C8.97311 23.9764 9.01186 23.9364 8.97686 23.8801C8.8677 23.7036 8.79451 23.5072 8.7615 23.3023C8.72849 23.0973 8.73632 22.8879 8.78453 22.686C8.83273 22.4841 8.92037 22.2937 9.04241 22.1258C9.16444 21.9579 9.31846 21.8158 9.49561 21.7076L25.9769 11.9001C26.0921 11.83 26.2236 11.7911 26.3584 11.7874C26.4932 11.7837 26.6267 11.8152 26.7456 11.8789C26.8119 11.9139 26.8769 11.8776 26.9306 11.9314L20.5681 5.54387Z" fill="#FFE5D9"/>
<path d="M16.9311 31.9564L9.11864 24.1439C8.40614 23.4189 8.55614 22.2189 9.41864 21.6939L25.9811 11.8189C26.1292 11.7286 26.3033 11.6907 26.4756 11.7111C26.6478 11.7315 26.8082 11.809 26.9311 11.9314L31.9186 16.9689C32.2931 17.343 32.5902 17.7873 32.7929 18.2763C32.9956 18.7654 33.0999 19.2895 33.0999 19.8189C33.0999 20.3482 32.9956 20.8724 32.7929 21.3614C32.5902 21.8505 32.2931 22.2947 31.9186 22.6689L22.6311 31.9564C22.257 32.3309 21.8127 32.6279 21.3237 32.8306C20.8347 33.0333 20.3105 33.1376 19.7811 33.1376C19.2518 33.1376 18.7276 33.0333 18.2386 32.8306C17.7496 32.6279 17.3053 32.3309 16.9311 31.9564Z" fill="#F4F4F4"/>
<path d="M11.9679 2.55639L2.55542 11.9689C2.32717 12.2004 2.19922 12.5125 2.19922 12.8376C2.19922 13.1628 2.32717 13.4748 2.55542 13.7064L3.57917 14.7301C3.71251 14.5568 3.85876 14.3906 4.01792 14.2314L14.2304 4.01889C14.3846 3.86389 14.5458 3.72098 14.7142 3.59014L13.6929 2.56889C13.2179 2.08139 12.4429 2.08139 11.9679 2.55639ZM12.0304 15.5814L9.81792 17.7939C9.45542 18.1564 9.45542 18.7564 9.81792 19.1189C10.1804 19.4814 10.7804 19.4814 11.1429 19.1189L13.3554 16.9064C13.7179 16.5439 13.7179 15.9439 13.3554 15.5814C12.9929 15.2064 12.4054 15.2064 12.0304 15.5814ZM16.2304 19.7814L14.0179 21.9939C13.6554 22.3564 13.6554 22.9564 14.0179 23.3189C14.3804 23.6814 14.9804 23.6814 15.3429 23.3189L17.5554 21.1064C17.9179 20.7439 17.9179 20.1439 17.5554 19.7814C17.1929 19.4064 16.6054 19.4064 16.2304 19.7814ZM20.4304 23.9689L18.2179 26.1814C17.8554 26.5439 17.8554 27.1439 18.2179 27.5064C18.5804 27.8689 19.1804 27.8689 19.5429 27.5064L21.7554 25.2939C22.1179 24.9314 22.1179 24.3314 21.7554 23.9689C21.579 23.7945 21.341 23.6968 21.0929 23.6968C20.8449 23.6968 20.6068 23.7945 20.4304 23.9689Z" fill="#E39D89"/>
</svg>
