<svg width="24" height="24" viewBox="0 0 24 24" fill="none" xmlns="http://www.w3.org/2000/svg">
<path d="M12.4068 1.22902C12.3644 1.15883 12.3047 1.10078 12.2333 1.06049C12.1619 1.0202 12.0813 0.999023 11.9993 0.999023C11.9173 0.999023 11.8367 1.0202 11.7653 1.06049C11.6939 1.10078 11.6342 1.15883 11.5918 1.22902C10.0758 3.71402 4.8418 12.485 4.8418 15.842C4.8418 17.7403 5.59589 19.5608 6.93818 20.9031C8.28047 22.2454 10.101 22.9995 11.9993 22.9995C13.8976 22.9995 15.7181 22.2454 17.0604 20.9031C18.4027 19.5608 19.1568 17.7403 19.1568 15.842C19.1568 12.485 13.9238 3.71202 12.4068 1.22902Z" fill="#FFBFC5"/>
<path d="M11.9998 20.107C10.3821 20.1104 8.81123 19.5647 7.54402 18.5592C6.2768 17.5538 5.38828 16.1481 5.02377 14.572C4.91823 14.9877 4.85755 15.4134 4.84277 15.842C4.84277 17.7402 5.59681 19.5606 6.93901 20.9028C8.28121 22.245 10.1016 22.999 11.9998 22.999C13.8979 22.999 15.7183 22.245 17.0605 20.9028C18.4027 19.5606 19.1568 17.7402 19.1568 15.842C19.142 15.4134 19.0813 14.9877 18.9758 14.572C18.6113 16.1481 17.7227 17.5538 16.4555 18.5592C15.1883 19.5647 13.6174 20.1104 11.9998 20.107Z" fill="#FF808C"/>
<path d="M12.4068 1.22902C12.3644 1.15883 12.3047 1.10078 12.2333 1.06049C12.1619 1.0202 12.0813 0.999023 11.9993 0.999023C11.9173 0.999023 11.8367 1.0202 11.7653 1.06049C11.6939 1.10078 11.6342 1.15883 11.5918 1.22902C10.0758 3.71402 4.8418 12.485 4.8418 15.842C4.8418 17.7403 5.59589 19.5608 6.93818 20.9031C8.28047 22.2454 10.101 22.9995 11.9993 22.9995C13.8976 22.9995 15.7181 22.2454 17.0604 20.9031C18.4027 19.5608 19.1568 17.7403 19.1568 15.842C19.1568 12.485 13.9238 3.71202 12.4068 1.22902Z" stroke="#191919" stroke-linecap="round" stroke-linejoin="round"/>
<path d="M11.9997 20.107C10.8656 20.1091 9.77655 19.663 8.96973 18.866" stroke="#191919" stroke-linecap="round" stroke-linejoin="round"/>
</svg>
