<svg width="40" height="40" viewBox="0 0 40 40" fill="none" xmlns="http://www.w3.org/2000/svg">
<path opacity="0.5" d="M36.167 17.1663V31.6663C36.167 32.8598 35.6935 34.005 34.8496 34.849C34.0057 35.6929 32.8605 36.1663 31.667 36.1663H8.33398C7.14066 36.1663 5.99623 35.6927 5.15234 34.849C4.30843 34.005 3.83398 32.8598 3.83398 31.6663V17.1663H36.167ZM11.667 3.83333C11.9764 3.83333 12.2734 3.95633 12.4922 4.17513C12.711 4.39392 12.834 4.6909 12.834 5.00032V11.6663C12.834 11.9758 12.711 12.2727 12.4922 12.4915C12.2734 12.7103 11.9764 12.8333 11.667 12.8333C11.3578 12.8332 11.0615 12.7101 10.8428 12.4915C10.624 12.2727 10.501 11.9758 10.501 11.6663V5.00032C10.501 4.6909 10.624 4.39392 10.8428 4.17513C11.0615 3.95651 11.3578 3.83341 11.667 3.83333ZM28.334 3.83333C28.6434 3.83333 28.9404 3.95633 29.1592 4.17513C29.3779 4.3939 29.501 4.69098 29.501 5.00032V11.6663C29.501 11.9757 29.3779 12.2728 29.1592 12.4915C28.9404 12.7103 28.6434 12.8333 28.334 12.8333C28.0246 12.8333 27.7276 12.7103 27.5088 12.4915C27.2901 12.2728 27.167 11.9757 27.167 11.6663V5.00032C27.167 4.69098 27.2901 4.3939 27.5088 4.17513C27.7276 3.95633 28.0246 3.83333 28.334 3.83333Z" fill="#FFC5D0" stroke="black"/>
<path d="M31.6673 6.66667H30.0007V11.6667C30.0007 12.1087 29.8251 12.5326 29.5125 12.8452C29.1999 13.1577 28.776 13.3333 28.334 13.3333C27.892 13.3333 27.468 13.1577 27.1555 12.8452C26.8429 12.5326 26.6673 12.1087 26.6673 11.6667V6.66667H13.334V11.6667C13.334 12.1087 13.1584 12.5326 12.8458 12.8452C12.5333 13.1577 12.1093 13.3333 11.6673 13.3333C11.2253 13.3333 10.8014 13.1577 10.4888 12.8452C10.1762 12.5326 10.0007 12.1087 10.0007 11.6667V6.66667H8.33398C7.0079 6.66667 5.73613 7.19346 4.79845 8.13114C3.86077 9.06882 3.33398 10.3406 3.33398 11.6667V16.6667H36.6673V11.6667C36.6673 10.3406 36.1405 9.06882 35.2029 8.13114C34.2652 7.19346 32.9934 6.66667 31.6673 6.66667Z" fill="#B34962"/>
</svg>
