<svg width="24" height="24" viewBox="0 0 24 24" fill="none" xmlns="http://www.w3.org/2000/svg">
<g clip-path="url(#clip0_1593_137)">
<path d="M1.45898 7.87499V4.20799C1.45925 3.96514 1.55584 3.7323 1.72757 3.56058C1.89929 3.38885 2.13213 3.29226 2.37498 3.29199H21.625C21.7454 3.29186 21.8646 3.31546 21.9758 3.36143C22.0871 3.40741 22.1882 3.47486 22.2733 3.55993C22.3585 3.645 22.4261 3.74602 22.4722 3.85722C22.5183 3.96842 22.542 4.08762 22.542 4.20799V7.87499H1.45898Z" fill="#FF808C"/>
<path d="M1.45898 5.58299V4.20799C1.45925 3.96514 1.55584 3.7323 1.72757 3.56058C1.89929 3.38885 2.13213 3.29226 2.37498 3.29199H21.625C21.7454 3.29186 21.8646 3.31546 21.9758 3.36143C22.0871 3.40741 22.1882 3.47486 22.2733 3.55993C22.3585 3.645 22.4261 3.74602 22.4722 3.85722C22.5183 3.96842 22.542 4.08762 22.542 4.20799V5.58299H1.45898Z" fill="#FFBFC5"/>
<path d="M1.45898 7.875H22.542V21.625C22.542 21.8682 22.4454 22.1014 22.2734 22.2734C22.1014 22.4454 21.8682 22.542 21.625 22.542H2.37498C2.13195 22.5417 1.89897 22.445 1.72721 22.2731C1.55546 22.1011 1.45898 21.868 1.45898 21.625V7.875Z" fill="white"/>
<path d="M6.04198 1.45996V6.04296M17.959 1.45996V6.04296M1.45898 7.87596H22.542M6.95898 18.418H11.542M21.625 3.29296H2.37498C2.13213 3.29323 1.89929 3.38982 1.72757 3.56154C1.55584 3.73327 1.45925 3.9661 1.45898 4.20896V21.626C1.45898 22.132 1.86898 22.543 2.37498 22.543H21.625C22.131 22.543 22.542 22.133 22.542 21.626V4.20896C22.5417 3.96593 22.445 3.73295 22.273 3.56119C22.1011 3.38944 21.868 3.29296 21.625 3.29296Z" stroke="#191919" stroke-linecap="round" stroke-linejoin="round"/>
<path d="M9.25001 18.417V11.542C9.25025 11.4557 9.22606 11.371 9.18024 11.2978C9.13442 11.2246 9.06883 11.1658 8.99105 11.1283C8.91326 11.0907 8.82645 11.076 8.74062 11.0857C8.6548 11.0953 8.57347 11.1291 8.50601 11.183L6.95801 12.422M15.208 18.417L17.895 11.767C17.9378 11.6978 17.9601 11.6177 17.9592 11.5363C17.9583 11.4549 17.9343 11.3754 17.89 11.307C17.8437 11.237 17.7804 11.1798 17.7062 11.1407C17.6319 11.1015 17.549 11.0817 17.465 11.083H13.833C13.7115 11.0836 13.5952 11.1321 13.5094 11.2181C13.4236 11.3041 13.3753 11.4206 13.375 11.542V12.458" stroke="#191919" stroke-linecap="round" stroke-linejoin="round"/>
</g>
<defs>
<clipPath id="clip0_1593_137">
<rect width="24" height="24" fill="white"/>
</clipPath>
</defs>
</svg>
