<svg width="30" height="30" viewBox="0 0 30 30" fill="none" xmlns="http://www.w3.org/2000/svg">
<path d="M22.9812 13.9091H23.5859C24.7168 13.9091 25.2816 13.9091 25.7025 14.1522C25.9783 14.3114 26.2073 14.5404 26.3665 14.8162C26.6096 15.2371 26.6096 15.802 26.6096 16.9328C26.6096 18.0637 26.6096 18.6285 26.3665 19.0494C26.2073 19.3252 25.9783 19.5542 25.7025 19.7134C25.2816 19.9565 24.7168 19.9565 23.5859 19.9565H22.9812M6.04838 13.9091H5.44364C4.31277 13.9091 3.74794 13.9091 3.32704 14.1522C3.05126 14.3114 2.82225 14.5404 2.66303 14.8162C2.41992 15.2371 2.41992 15.802 2.41992 16.9328C2.41992 18.0637 2.41992 18.6285 2.66303 19.0494C2.82225 19.3252 3.05126 19.5542 3.32704 19.7134C3.74794 19.9565 4.31277 19.9565 5.44364 19.9565H6.04838M13.3053 9.6759H15.7243C19.1447 9.6759 20.8561 9.6759 21.918 10.739C22.9812 11.801 22.9812 13.5124 22.9812 16.9328C22.9812 20.3532 22.9812 22.0647 21.918 23.1266C20.8561 24.1897 19.1447 24.1897 15.7243 24.1897H14.5148C14.5148 24.1897 13.91 26.6087 9.67684 26.6087C9.67684 26.6087 10.8863 25.3883 10.8863 24.1692C9.00799 24.1123 7.8868 23.9031 7.11152 23.1266C6.04838 22.0647 6.04838 20.3532 6.04838 16.9328C6.04838 13.5124 6.04838 11.801 7.11152 10.739C8.17345 9.6759 9.88487 9.6759 13.3053 9.6759Z" stroke="#191919" stroke-width="1.5" stroke-linejoin="round"/>
<path d="M16.3296 4.23317C16.3296 4.71434 16.1385 5.1758 15.7983 5.51603C15.458 5.85626 14.9966 6.0474 14.5154 6.0474C14.0342 6.0474 13.5728 5.85626 13.2325 5.51603C12.8923 5.1758 12.7012 4.71434 12.7012 4.23317C12.7012 3.75201 12.8923 3.29055 13.2325 2.95032C13.5728 2.61009 14.0342 2.41895 14.5154 2.41895C14.9966 2.41895 15.458 2.61009 15.7983 2.95032C16.1385 3.29055 16.3296 3.75201 16.3296 4.23317Z" stroke="#191919" stroke-width="1.5"/>
<path d="M14.5152 6.04736V9.67582M10.8867 14.5138V15.7233M18.1436 14.5138V15.7233" stroke="#191919" stroke-width="1.5" stroke-linecap="round" stroke-linejoin="round"/>
<path d="M12.0957 19.9565C12.0957 19.9565 12.9024 20.5613 14.5147 20.5613C16.1269 20.5613 16.9336 19.9565 16.9336 19.9565" stroke="#191919" stroke-width="1.5" stroke-linecap="round"/>
</svg>
