<svg width="40" height="40" viewBox="0 0 40 40" fill="none" xmlns="http://www.w3.org/2000/svg">
<path d="M6.25879 8.58334H33.7412C34.2981 8.58334 34.75 9.0352 34.75 9.59213V12.0414H30.0986C28.9993 12.0414 28.083 12.8861 28.083 13.9583C28.083 15.0306 28.9993 15.8753 30.0986 15.8753H34.75V16.6673C34.7507 17.4205 34.6904 18.1721 34.5762 18.9164H34.167C27.2319 18.9164 21.5912 24.4528 21.4209 31.347C20.4753 31.4375 19.5237 31.4376 18.5781 31.347C18.4078 24.4528 12.7681 18.9164 5.83301 18.9164H5.42383C5.30965 18.1721 5.24934 17.4205 5.25 16.6673V15.8753H9.90137C11.0007 15.8753 11.917 15.0306 11.917 13.9583C11.917 12.8861 11.0007 12.0414 9.90137 12.0414H5.25V9.59213C5.25 9.06999 5.64675 8.63983 6.15527 8.58823L6.25879 8.58334Z" fill="url(#paint0_linear_2293_1567)" stroke="#B34962" stroke-width="0.5"/>
<path d="M5.9248 21.0853C11.4935 21.1328 16.0315 25.4799 16.3887 30.9691C11.4164 29.7185 7.44843 25.9435 5.9248 21.0853ZM34.0742 21.0853C32.5504 25.9439 28.5812 29.7189 23.6074 30.9691C23.9661 25.4797 28.5053 21.1326 34.0742 21.0853Z" fill="url(#paint1_linear_2293_1567)" stroke="#B34962" stroke-width="0.5"/>
<defs>
<linearGradient id="paint0_linear_2293_1567" x1="20" y1="8.33334" x2="20" y2="31.6669" gradientUnits="userSpaceOnUse">
<stop offset="0.721154" stop-color="#FFC5D0"/>
</linearGradient>
<linearGradient id="paint1_linear_2293_1567" x1="19.9997" y1="20.8333" x2="19.9997" y2="31.2933" gradientUnits="userSpaceOnUse">
<stop offset="0.721154" stop-color="#FFC5D0"/>
</linearGradient>
</defs>
</svg>
