<svg width="40" height="40" viewBox="0 0 40 40" fill="none" xmlns="http://www.w3.org/2000/svg">
<g>
<path d="M35.6888 12.8664H34.4V12.8H20V19.2H29.0424C27.7232 22.9256 24.1784 25.6 20 25.6C14.6984 25.6 10.4 21.3016 10.4 16C10.4 10.6984 14.6984 6.4 20 6.4C22.4472 6.4 24.6736 7.3232 26.3688 8.8312L30.8944 4.3056C28.0368 1.6424 24.2144 0 20 0C11.164 0 4 7.164 4 16C4 24.836 11.164 32 20 32C28.836 32 36 24.836 36 16C36 14.9272 35.8896 13.88 35.6888 12.8664Z" fill="#FFC107"/>
<path d="M5.8448 8.5528L11.1016 12.408C12.524 8.8864 15.9688 6.4 20 6.4C22.4472 6.4 24.6736 7.3232 26.3688 8.8312L30.8944 4.3056C28.0368 1.6424 24.2144 0 20 0C13.8544 0 8.5248 3.4696 5.8448 8.5528Z" fill="#FF3D00"/>
<path d="M20 32C24.1328 32 27.888 30.4184 30.7272 27.8464L25.7752 23.656C24.1688 24.8728 22.172 25.6 20 25.6C15.8384 25.6 12.3048 22.9464 10.9736 19.2432L5.756 23.2632C8.404 28.4448 13.7816 32 20 32Z" fill="#4CAF50"/>
<path d="M35.6888 12.8664H34.4V12.8H20V19.2H29.0424C28.4088 20.9896 27.2576 22.5328 25.7728 23.6568L25.7752 23.656L30.7272 27.8464C30.3768 28.1648 36 24 36 16C36 14.9272 35.8896 13.88 35.6888 12.8664Z" fill="#1976D2"/>
</g>
</svg>