<svg width="25" height="25" viewBox="0 0 25 25" fill="none" xmlns="http://www.w3.org/2000/svg">
<path d="M16.1703 2.31011C12.759 2.31011 10.01 5.05915 10.01 8.47042C10.01 8.65138 10.0385 8.89625 10.0585 9.12034L3.46468 15.7134C3.1045 16.0713 2.81866 16.4968 2.6236 16.9656C2.42854 17.4343 2.32812 17.937 2.32812 18.4447C2.32812 18.9525 2.42854 19.4552 2.6236 19.9239C2.81866 20.3927 3.1045 20.8182 3.46468 21.1761C3.82252 21.5362 4.24807 21.8221 4.71683 22.0171C5.18558 22.2122 5.68829 22.3126 6.19601 22.3126C6.70373 22.3126 7.20643 22.2122 7.67519 22.0171C8.14394 21.8221 8.56949 21.5362 8.92733 21.1761L15.5204 14.5822C15.7437 14.6022 15.9901 14.6307 16.1703 14.6307C19.5816 14.6307 22.3306 11.8817 22.3306 8.47042C22.3346 7.47785 22.086 6.50058 21.6083 5.63052L21.1271 4.74035L20.4055 5.46265L17.0844 8.75842L15.8816 7.55562L19.1773 4.23521L19.9012 3.51291L19.0102 3.03164C18.1401 2.55421 17.1628 2.30591 16.1703 2.31011ZM16.1703 3.85019C16.5446 3.85019 16.8233 4.0119 17.156 4.09121L14.2452 7.00196L13.6908 7.55639L14.2452 8.0854L16.5553 10.3955L17.0851 10.9499L17.638 10.3955L20.5503 7.48477C20.6296 7.81743 20.7906 8.09618 20.7906 8.47042C20.7906 11.0655 18.7654 13.0907 16.1703 13.0907C15.8623 13.0907 15.6159 13.0907 15.4234 13.0421L15.0153 12.922L14.7026 13.2354L7.84389 20.0942C6.89674 21.0413 5.49527 21.0413 4.54812 20.0942L4.52348 20.0695C3.59944 19.1224 3.60714 17.7363 4.54658 16.7969L11.4053 9.93889L11.7187 9.62625L11.5971 9.21813C11.5509 9.02562 11.5493 8.77921 11.5493 8.47119C11.5493 5.87616 13.5745 3.85096 16.1696 3.85096L16.1703 3.85019Z" fill="#B34962"/>
</svg>
