<svg width="22" height="20" viewBox="0 0 22 20" fill="none" xmlns="http://www.w3.org/2000/svg">
<path d="M10.6138 15.8115C10.9872 15.8115 11.3029 15.692 11.5611 15.4528C11.8192 15.2137 11.9479 14.9215 11.9472 14.5763C11.9465 14.231 11.8178 13.9385 11.5611 13.6987C11.3043 13.4589 10.9886 13.3397 10.6138 13.341C10.2391 13.3423 9.92366 13.4619 9.66765 13.6997C9.41164 13.9375 9.28257 14.2297 9.28043 14.5763C9.2783 14.9228 9.40737 15.2153 9.66765 15.4538C9.92793 15.6923 10.2433 15.8115 10.6138 15.8115ZM9.65378 12.0069H11.6272C11.6272 11.4634 11.6941 11.0351 11.8278 10.7222C11.9614 10.4093 12.3391 9.98104 12.9606 9.43751C13.4228 9.00928 13.7873 8.60148 14.054 8.2141C14.3207 7.82671 14.454 7.36159 14.454 6.81873C14.454 5.89639 14.0895 5.18816 13.3606 4.69405C12.6317 4.19994 11.7694 3.95289 10.7738 3.95289C9.76045 3.95289 8.93837 4.19994 8.30759 4.69405C7.6768 5.18816 7.2366 5.7811 6.98699 6.47285L8.74707 7.1152C8.83597 6.81873 9.03615 6.49756 9.34763 6.15168C9.65912 5.8058 10.1345 5.63286 10.7738 5.63286C11.3428 5.63286 11.7694 5.77714 12.0539 6.0657C12.3384 6.35426 12.4806 6.67116 12.4806 7.01637C12.4806 7.34578 12.3739 7.65476 12.1606 7.94332C11.9472 8.23188 11.6805 8.49936 11.3605 8.74576C10.5783 9.3881 10.0982 9.87398 9.92046 10.2034C9.74268 10.5328 9.65378 11.134 9.65378 12.0069ZM10.6672 19.7644C9.19154 19.7644 7.80481 19.5052 6.50697 18.9867C5.20913 18.4682 4.08019 17.7639 3.12015 16.8739C2.1601 15.9838 1.40024 14.938 0.840574 13.7363C0.280903 12.5346 0.000712494 11.2499 1.35027e-06 9.88221C-0.000709794 8.51452 0.279481 7.22983 0.840574 6.02815C1.40167 4.82648 2.16152 3.78061 3.12015 2.89055C4.07877 2.00049 5.20771 1.29655 6.50697 0.778723C7.80623 0.260895 9.19296 0.00132262 10.6672 4.99101e-06C12.1414 -0.00131264 13.5281 0.25826 14.8274 0.778723C16.1266 1.29919 17.2556 2.00313 18.2142 2.89055C19.1728 3.77797 19.933 4.82384 20.4948 6.02815C21.0566 7.23246 21.3365 8.51715 21.3343 9.88221C21.3322 11.2473 21.052 12.532 20.4938 13.7363C19.9355 14.9406 19.1756 15.9865 18.2142 16.8739C17.2527 17.7613 16.1238 18.4656 14.8274 18.9867C13.5309 19.5078 12.1442 19.7671 10.6672 19.7644ZM10.6672 17.788C13.0495 17.788 15.0674 17.0221 16.7208 15.4904C18.3742 13.9586 19.2009 12.0892 19.2009 9.88221C19.2009 7.67519 18.3742 5.8058 16.7208 4.27406C15.0674 2.74232 13.0495 1.97645 10.6672 1.97645C8.28483 1.97645 6.26696 2.74232 4.61355 4.27406C2.96014 5.8058 2.13343 7.67519 2.13343 9.88221C2.13343 12.0892 2.96014 13.9586 4.61355 15.4904C6.26696 17.0221 8.28483 17.788 10.6672 17.788Z" fill="#B34962"/>
</svg>
