<svg width="23" height="20" viewBox="0 0 23 20" fill="none" xmlns="http://www.w3.org/2000/svg">
<path d="M0 19.7276V15.5744C0 14.9861 0.203506 14.4929 0.610518 14.0949C1.01753 13.6969 1.50622 13.4979 2.07659 13.4979H5.47701C5.82311 13.4979 6.15191 13.5844 6.46339 13.7574C6.77488 13.9305 7.0258 14.1641 7.21616 14.4583C7.718 15.1332 8.33683 15.661 9.07263 16.0417C9.80844 16.4224 10.5913 16.6127 11.4213 16.6127C12.2692 16.6127 13.0611 16.4224 13.7969 16.0417C14.5327 15.661 15.1425 15.1332 15.6264 14.4583C15.8513 14.1641 16.1154 13.9305 16.4186 13.7574C16.7218 13.5844 17.0374 13.4979 17.3655 13.4979H20.7659C21.3543 13.4979 21.8475 13.6969 22.2455 14.0949C22.6435 14.4929 22.8425 14.9861 22.8425 15.5744V19.7276H15.5744V17.3655C14.9688 17.7981 14.3153 18.1269 13.6141 18.3519C12.9129 18.5768 12.182 18.6893 11.4213 18.6893C10.6771 18.6893 9.95034 18.5727 9.24084 18.3394C8.53133 18.1062 7.87375 17.7729 7.26807 17.3395V19.7276H0ZM3.11489 12.4596C2.24964 12.4596 1.51418 12.1567 0.908509 11.551C0.302836 10.9454 0 10.2099 0 9.34467C0 8.46211 0.302836 7.7225 0.908509 7.12583C1.51418 6.52915 2.24964 6.23047 3.11489 6.22978C3.99744 6.22978 4.7374 6.52846 5.33477 7.12583C5.93213 7.72319 6.23047 8.46281 6.22978 9.34467C6.22978 10.2099 5.93144 10.9454 5.33477 11.551C4.73809 12.1567 3.99813 12.4596 3.11489 12.4596ZM19.7276 12.4596C18.8624 12.4596 18.1269 12.1567 17.5212 11.551C16.9156 10.9454 16.6127 10.2099 16.6127 9.34467C16.6127 8.46211 16.9156 7.7225 17.5212 7.12583C18.1269 6.52915 18.8624 6.23047 19.7276 6.22978C20.6102 6.22978 21.3501 6.52846 21.9475 7.12583C22.5449 7.72319 22.8432 8.46281 22.8425 9.34467C22.8425 10.2099 22.5442 10.9454 21.9475 11.551C21.3508 12.1567 20.6109 12.4596 19.7276 12.4596ZM11.4213 10.383C10.2445 9.31006 9.2841 8.4057 8.53999 7.66989C7.79587 6.93409 7.21616 6.29831 6.80084 5.76254C6.38552 5.22678 6.09999 4.7554 5.94425 4.34838C5.7885 3.94137 5.71063 3.53021 5.71063 3.11489C5.71063 2.24964 6.01347 1.51418 6.61914 0.908509C7.22481 0.302836 7.96892 0 8.85147 0C9.33601 0 9.80325 0.108329 10.2532 0.324987C10.7031 0.541645 11.0925 0.831329 11.4213 1.19404C11.7501 0.830637 12.1394 0.540952 12.5893 0.324987C13.0393 0.109021 13.5065 0.000692197 13.991 0C14.8736 0 15.6177 0.302836 16.2234 0.908509C16.8291 1.51418 17.1319 2.24964 17.1319 3.11489C17.1319 3.53021 17.054 3.94137 16.8983 4.34838C16.7425 4.7554 16.457 5.22678 16.0417 5.76254C15.6264 6.29831 15.0466 6.93443 14.3025 7.67093C13.5584 8.40743 12.598 9.31144 11.4213 10.383ZM11.4213 7.57956C12.6672 6.43744 13.5844 5.50747 14.1727 4.78966C14.7611 4.07185 15.0553 3.51359 15.0553 3.11489C15.0553 2.8207 14.9515 2.57428 14.7438 2.37562C14.5361 2.17696 14.2852 2.07728 13.991 2.07659C13.7834 2.07659 13.5802 2.13716 13.3816 2.25829C13.1829 2.37943 12.9794 2.56113 12.771 2.8034L11.4472 4.33489L10.1234 2.85531C9.88112 2.57844 9.66031 2.37943 9.46096 2.25829C9.2616 2.13716 9.05879 2.07659 8.85251 2.07659C8.55764 2.07659 8.30637 2.17627 8.09871 2.37562C7.89105 2.57497 7.78722 2.8214 7.78722 3.11489C7.78722 3.5129 8.08141 4.07116 8.66977 4.78966C9.25814 5.50816 10.1753 6.43813 11.4213 7.57956Z" fill="#B34962"/>
</svg>
