<svg width="33" height="33" viewBox="0 0 33 33" fill="none" xmlns="http://www.w3.org/2000/svg">
<path d="M27.8336 3.27455H24.5591V1.63727C24.5591 1.20304 24.3866 0.786594 24.0796 0.479546C23.7725 0.172498 23.3561 0 22.9218 0C22.4876 0 22.0711 0.172498 21.7641 0.479546C21.457 0.786594 21.2845 1.20304 21.2845 1.63727V3.27455H11.4609V1.63727C11.4609 1.20304 11.2884 0.786594 10.9814 0.479546C10.6743 0.172498 10.2579 0 9.82364 0C9.38941 0 8.97296 0.172498 8.66591 0.479546C8.35886 0.786594 8.18637 1.20304 8.18637 1.63727V3.27455H4.91182C3.60912 3.27455 2.35978 3.79204 1.43864 4.71318C0.517494 5.63433 0 6.88367 0 8.18637V27.8336C0 29.1363 0.517494 30.3857 1.43864 31.3068C2.35978 32.228 3.60912 32.7455 4.91182 32.7455H27.8336C29.1363 32.7455 30.3857 32.228 31.3068 31.3068C32.228 30.3857 32.7455 29.1363 32.7455 27.8336V8.18637C32.7455 6.88367 32.228 5.63433 31.3068 4.71318C30.3857 3.79204 29.1363 3.27455 27.8336 3.27455ZM29.4709 27.8336C29.4709 28.2679 29.2984 28.6843 28.9914 28.9914C28.6843 29.2984 28.2679 29.4709 27.8336 29.4709H4.91182C4.47759 29.4709 4.06114 29.2984 3.75409 28.9914C3.44704 28.6843 3.27455 28.2679 3.27455 27.8336V16.3727H29.4709V27.8336ZM29.4709 13.0982H3.27455V8.18637C3.27455 7.75213 3.44704 7.33569 3.75409 7.02864C4.06114 6.72159 4.47759 6.54909 4.91182 6.54909H8.18637V8.18637C8.18637 8.6206 8.35886 9.03704 8.66591 9.34409C8.97296 9.65114 9.38941 9.82364 9.82364 9.82364C10.2579 9.82364 10.6743 9.65114 10.9814 9.34409C11.2884 9.03704 11.4609 8.6206 11.4609 8.18637V6.54909H21.2845V8.18637C21.2845 8.6206 21.457 9.03704 21.7641 9.34409C22.0711 9.65114 22.4876 9.82364 22.9218 9.82364C23.3561 9.82364 23.7725 9.65114 24.0796 9.34409C24.3866 9.03704 24.5591 8.6206 24.5591 8.18637V6.54909H27.8336C28.2679 6.54909 28.6843 6.72159 28.9914 7.02864C29.2984 7.33569 29.4709 7.75213 29.4709 8.18637V13.0982Z" fill="#B34962"/>
</svg>
