<svg width="28" height="27" viewBox="0 0 28 27" fill="none" xmlns="http://www.w3.org/2000/svg">
<path d="M26.9583 13.1983H9.45542M3.27733 13.1983H0.75M3.27733 13.1983C3.27733 12.3792 3.60271 11.5936 4.18189 11.0145C4.76106 10.4353 5.54659 10.1099 6.36567 10.1099C7.18474 10.1099 7.97027 10.4353 8.54945 11.0145C9.12862 11.5936 9.454 12.3792 9.454 13.1983C9.454 14.0173 9.12862 14.8029 8.54945 15.382C7.97027 15.9612 7.18474 16.2866 6.36567 16.2866C5.54659 16.2866 4.76106 15.9612 4.18189 15.382C3.60271 14.8029 3.27733 14.0173 3.27733 13.1983ZM26.9583 22.5582H18.8153M18.8153 22.5582C18.8153 23.3774 18.4892 24.1639 17.9099 24.7432C17.3306 25.3225 16.5448 25.6479 15.7256 25.6479C14.9065 25.6479 14.121 25.3211 13.5418 24.742C12.9626 24.1628 12.6373 23.3772 12.6373 22.5582M18.8153 22.5582C18.8153 21.7389 18.4892 20.9539 17.9099 20.3746C17.3306 19.7953 16.5448 19.4698 15.7256 19.4698C14.9065 19.4698 14.121 19.7952 13.5418 20.3744C12.9626 20.9536 12.6373 21.7391 12.6373 22.5582M12.6373 22.5582H0.75M26.9583 3.83833H22.5596M16.3815 3.83833H0.75M16.3815 3.83833C16.3815 3.01926 16.7069 2.23373 17.2861 1.65455C17.8652 1.07538 18.6508 0.75 19.4698 0.75C19.8754 0.75 20.277 0.829882 20.6517 0.985085C21.0264 1.14029 21.3668 1.36777 21.6536 1.65455C21.9404 1.94133 22.1679 2.28179 22.3231 2.65648C22.4783 3.03117 22.5582 3.43277 22.5582 3.83833C22.5582 4.2439 22.4783 4.64549 22.3231 5.02019C22.1679 5.39488 21.9404 5.73534 21.6536 6.02211C21.3668 6.30889 21.0264 6.53638 20.6517 6.69158C20.277 6.84679 19.8754 6.92667 19.4698 6.92667C18.6508 6.92667 17.8652 6.60129 17.2861 6.02211C16.7069 5.44294 16.3815 4.65741 16.3815 3.83833Z" stroke="#A6A6A6" stroke-width="1.5" stroke-miterlimit="10" stroke-linecap="round"/>
</svg>
