<svg width="30" height="30" viewBox="0 0 30 30" fill="none" xmlns="http://www.w3.org/2000/svg">
<path d="M3.33301 0.25H26.2861C26.7054 0.250003 27.1208 0.335175 27.5059 0.500977C27.8909 0.666795 28.2383 0.910292 28.5264 1.21484C28.8143 1.51938 29.0375 1.87986 29.1816 2.27344C29.3257 2.66705 29.3875 3.08637 29.3643 3.50488L28.0684 26.8379C28.0246 27.6247 27.6808 28.3647 27.1084 28.9062C26.5358 29.4479 25.7774 29.75 24.9893 29.75H4.62891C3.84091 29.7499 3.08322 29.4478 2.51074 28.9062C1.9382 28.3647 1.59455 27.6248 1.55078 26.8379L0.254883 3.50488C0.231615 3.08629 0.294339 2.66712 0.438477 2.27344C0.582591 1.87986 0.804815 1.51939 1.09277 1.21484C1.38078 0.910324 1.72836 0.667817 2.11328 0.501953C2.45023 0.35681 2.81022 0.272609 3.17578 0.253906L3.33301 0.25ZM14.8916 3.91797C12.9552 3.8861 11.0359 4.28784 9.27441 5.09277C8.00314 5.67353 6.83964 6.46591 5.83398 7.43652V7.4375C5.12213 8.12791 5.31566 9.20655 6.08887 9.75293L9.68262 12.291C10.4647 12.8442 11.5211 12.645 12.2578 12.1758C12.4267 12.0698 12.6023 11.9745 12.7832 11.8906L12.7842 11.8916C13.3658 11.6262 13.9965 11.4856 14.6357 11.4785L14.748 11.4775L14.8223 11.3926L17.6494 8.1416C17.7508 8.02491 17.8946 7.95333 18.0488 7.94238C18.1253 7.93702 18.2027 7.94641 18.2754 7.9707C18.348 7.995 18.4149 8.03377 18.4727 8.08398C18.5305 8.13424 18.5781 8.19512 18.6123 8.26367C18.6465 8.33224 18.6665 8.40696 18.6719 8.4834C18.6772 8.55975 18.6678 8.63638 18.6436 8.70898C18.6193 8.78157 18.5804 8.84845 18.5303 8.90625L16.3369 11.4277L16.1094 11.6895L16.4307 11.8223C16.7114 11.9388 16.9798 12.0833 17.2314 12.2539V12.2549C17.952 12.7468 19.0009 12.9764 19.8018 12.4492L23.4834 10.0244C24.2735 9.50407 24.5088 8.43189 23.8203 7.71875H23.8193C22.8485 6.71637 21.714 5.8867 20.4639 5.2666C18.8388 4.46045 17.0636 4.00542 15.2539 3.92871L14.8916 3.91797Z" fill="url(#paint0_linear_2293_1579)" stroke="black" stroke-width="0.5"/>
<defs>
<linearGradient id="paint0_linear_2293_1579" x1="14.8097" y1="0" x2="14.8097" y2="30" gradientUnits="userSpaceOnUse">
<stop offset="1" stop-color="#FFC5D0"/>
</linearGradient>
</defs>
</svg>
